<svg width="52" height="53" viewBox="0 0 52 53" fill="none" xmlns="http://www.w3.org/2000/svg">
<g filter="url(#filter0_d_1_1118)">
<rect x="4" y="0.577148" width="43.8462" height="43.8462" rx="21.9231" fill="#976FCC"/>
<path d="M25.9233 12.8545C20.598 12.8545 16.2771 17.1753 16.2771 22.5007C16.2771 24.633 16.9673 26.5971 18.1345 28.1963L16.9056 31.8326L20.7383 30.6373C22.2365 31.5913 24.0154 32.1468 25.9233 32.1468C31.2486 32.1468 35.5695 27.826 35.5695 22.5007C35.5695 17.1753 31.2486 12.8545 25.9233 12.8545ZM30.3396 27.6745C28.5888 28.3759 26.5013 27.6969 24.2174 25.963C21.9335 24.229 20.4296 21.788 20.3286 19.9755C20.2276 18.163 21.7035 17.2483 22.5059 17.2539C23.3083 17.2595 24.1893 19.824 24.2006 20.2168C24.2118 20.6152 23.2186 21.3222 23.1793 21.6589C23.14 21.9956 24.5316 23.6566 25.1209 24.1056C25.7045 24.5489 26.9109 25.4018 27.5338 25.3232C28.1511 25.2391 28.5607 23.9989 28.9535 23.9204C29.3463 23.8418 31.4899 24.908 31.7031 25.183C31.9164 25.4635 31.8939 27.0572 30.3396 27.6745Z" fill="white"/>
</g>
<defs>
<filter id="filter0_d_1_1118" x="0" y="0.577148" width="51.8462" height="51.8467" filterUnits="userSpaceOnUse" color-interpolation-filters="sRGB">
<feFlood flood-opacity="0" result="BackgroundImageFix"/>
<feColorMatrix in="SourceAlpha" type="matrix" values="0 0 0 0 0 0 0 0 0 0 0 0 0 0 0 0 0 0 127 0" result="hardAlpha"/>
<feOffset dy="4"/>
<feGaussianBlur stdDeviation="2"/>
<feComposite in2="hardAlpha" operator="out"/>
<feColorMatrix type="matrix" values="0 0 0 0 0 0 0 0 0 0 0 0 0 0 0 0 0 0 0.25 0"/>
<feBlend mode="normal" in2="BackgroundImageFix" result="effect1_dropShadow_1_1118"/>
<feBlend mode="normal" in="SourceGraphic" in2="effect1_dropShadow_1_1118" result="shape"/>
</filter>
</defs>
</svg>
