<svg width="52" height="53" viewBox="0 0 52 53" fill="none" xmlns="http://www.w3.org/2000/svg">
<g filter="url(#filter0_d_1_1115)">
<rect x="4" y="0.577148" width="43.8462" height="43.8462" rx="21.9231" fill="#12C868"/>
<path d="M28.1356 13.8643H23.7056C19.4171 13.8643 15.9581 16.9773 15.9581 20.8414V23.8316C15.9581 26.5305 17.6775 28.9836 20.3881 30.1306V33.4712C20.3881 33.6396 20.56 33.7944 20.7775 33.7944C20.8635 33.7944 20.9646 33.7625 21.0354 33.7033L24.2366 30.8042H28.1356C32.4291 30.8042 35.8882 27.6911 35.8882 23.827V20.8368C35.8882 16.9773 32.4291 13.8643 28.1356 13.8643ZM31.0485 26.9401L29.941 27.9369C28.7475 28.9791 25.6829 27.7821 22.9723 25.3017C20.2617 22.8212 19.0581 20.0131 20.201 18.9708L21.3085 17.9741C21.7535 17.6054 22.4514 17.6236 22.8914 18.0059L24.4945 19.5079C24.9041 19.9084 24.9041 20.5046 24.4591 20.9051C24.3377 21.0143 24.2012 21.0735 24.0495 21.1372C23.4881 21.292 23.1999 21.779 23.3364 22.2887C23.6095 23.3947 25.157 24.7737 26.3353 25.0468C26.8814 25.1697 27.4428 24.892 27.6299 24.4187C27.817 23.9272 28.4289 23.6541 29.0105 23.8225C29.1824 23.868 29.319 23.9772 29.4555 24.0683L31.0586 25.5702C31.4581 25.9297 31.4581 26.5442 31.0485 26.9401ZM26.9118 18.6022C26.7904 18.6022 26.6893 18.6022 26.5881 18.634C26.401 18.6659 26.1987 18.5248 26.1785 18.3291C26.1583 18.1334 26.2999 17.9786 26.5022 17.9604C26.6387 17.9286 26.7752 17.9286 26.9118 17.9286C28.9549 17.9286 30.5934 19.4305 30.6237 21.2419C30.6237 21.3648 30.6237 21.4877 30.5883 21.6106C30.5529 21.779 30.4012 21.9337 30.1787 21.9018C29.9562 21.87 29.8196 21.7334 29.855 21.5332C29.855 21.424 29.8904 21.3329 29.8904 21.2419C29.8753 19.7991 28.5452 18.6022 26.9118 18.6022ZM29.1268 21.2692C29.0914 21.4376 28.9397 21.5924 28.7172 21.5605C28.5452 21.5286 28.3935 21.4057 28.3935 21.2692C28.3935 20.5501 27.731 19.9493 26.927 19.9493C26.7398 19.9812 26.5376 19.8265 26.5173 19.6444C26.4819 19.476 26.6539 19.2939 26.841 19.2757H26.8916C28.171 19.2757 29.1268 20.1632 29.1268 21.2692ZM31.9537 22.3251C31.9183 22.4935 31.7312 22.6164 31.5441 22.6027C31.357 22.5891 31.2205 22.4025 31.2356 22.2341C31.2356 22.2022 31.2356 22.2022 31.2356 22.1886C31.3216 21.8973 31.357 21.5924 31.357 21.2692C31.357 19.0755 29.3645 17.2823 26.927 17.2823C26.8056 17.2823 26.7044 17.2823 26.6033 17.2823C26.4162 17.3141 26.2139 17.1594 26.2139 16.9773C26.1785 16.8089 26.3504 16.6269 26.5376 16.6269C26.6741 16.6269 26.8106 16.595 26.927 16.595C29.7741 16.595 32.1054 18.6795 32.1054 21.2556C32.0903 21.606 32.0397 21.9883 31.9537 22.3251Z" fill="white"/>
</g>
<defs>
<filter id="filter0_d_1_1115" x="0" y="0.577148" width="51.8462" height="51.8467" filterUnits="userSpaceOnUse" color-interpolation-filters="sRGB">
<feFlood flood-opacity="0" result="BackgroundImageFix"/>
<feColorMatrix in="SourceAlpha" type="matrix" values="0 0 0 0 0 0 0 0 0 0 0 0 0 0 0 0 0 0 127 0" result="hardAlpha"/>
<feOffset dy="4"/>
<feGaussianBlur stdDeviation="2"/>
<feComposite in2="hardAlpha" operator="out"/>
<feColorMatrix type="matrix" values="0 0 0 0 0 0 0 0 0 0 0 0 0 0 0 0 0 0 0.25 0"/>
<feBlend mode="normal" in2="BackgroundImageFix" result="effect1_dropShadow_1_1115"/>
<feBlend mode="normal" in="SourceGraphic" in2="effect1_dropShadow_1_1115" result="shape"/>
</filter>
</defs>
</svg>
