<svg width="13" height="10" viewBox="0 0 13 10" fill="none" xmlns="http://www.w3.org/2000/svg">
<path d="M2.49979 4.06257C3.36276 4.06257 4.06233 3.363 4.06233 2.50004C4.06233 1.63707 3.36276 0.9375 2.49979 0.9375C1.63683 0.9375 0.937256 1.63707 0.937256 2.50004C0.937256 3.363 1.63683 4.06257 2.49979 4.06257Z" fill="#F38120"/>
<path opacity="0.25" d="M2.49981 5.00011C3.88055 5.00011 4.99987 3.8808 4.99987 2.50006C4.99987 1.11931 3.88055 0 2.49981 0C1.11907 0 -0.000244141 1.11931 -0.000244141 2.50006C-0.000244141 3.8808 1.11907 5.00011 2.49981 5.00011Z" fill="#F38120"/>
<path d="M12.0274 3.98434L9.96406 1.6772C9.55499 1.26081 8.89121 1.26081 8.47957 1.67982C8.34836 1.81337 8.26088 1.97312 8.21457 2.14072C7.80293 1.82123 7.21119 1.85265 6.83299 2.23761C6.70178 2.37117 6.6143 2.53092 6.56799 2.69852C6.15635 2.37903 5.56461 2.41045 5.18641 2.79541C5.05777 2.92635 4.97029 3.08086 4.92398 3.24584L3.94633 2.25856C3.53726 1.84218 2.87348 1.84218 2.46183 2.26118C2.05276 2.67757 2.05276 3.35321 2.46183 3.7696L6.19751 7.57467L3.98235 7.92821C3.38289 8.01463 2.93265 8.54624 2.93265 9.16165C2.93265 9.62255 3.30313 9.99966 3.75594 9.99966H8.93238C9.73766 9.99966 10.4966 9.68017 11.0678 9.0988L11.9322 8.21889C12.5008 7.64014 12.8147 6.86761 12.8147 6.04793C12.8121 5.28587 12.5317 4.55261 12.0274 3.98434ZM11.5386 7.82608L10.6741 8.70598C10.2085 9.17998 9.58844 9.44186 8.92723 9.44186H3.75594C3.60415 9.44186 3.48065 9.31616 3.48065 9.16165C3.48065 8.82121 3.73021 8.53053 4.06468 8.48077L6.81755 8.04082C6.92046 8.0251 7.00279 7.95178 7.03624 7.85226C7.06711 7.75275 7.04138 7.64276 6.96935 7.56944L2.85032 3.37678C2.65479 3.17775 2.65479 2.85564 2.8529 2.654C2.95066 2.55449 3.0793 2.50473 3.20537 2.50473C3.33401 2.50473 3.46007 2.55449 3.55784 2.654L6.303 5.44823C6.41105 5.55822 6.58343 5.55822 6.69148 5.44823C6.74551 5.39324 6.77124 5.32253 6.77124 5.2492C6.77124 5.17588 6.74551 5.10517 6.69148 5.05018L5.56975 3.90839C5.37422 3.70936 5.37422 3.38726 5.57233 3.18561C5.76786 2.98658 6.08431 2.98658 6.27984 3.18561L7.40157 4.3274C7.50963 4.43738 7.68201 4.43738 7.79006 4.3274C7.84409 4.2724 7.86982 4.20169 7.86982 4.12837C7.86982 4.05504 7.84409 3.98434 7.79006 3.92934L7.21633 3.34536C7.0208 3.14633 7.0208 2.82422 7.2189 2.62257C7.41444 2.42355 7.73089 2.42355 7.92642 2.62257L8.50272 3.20918C8.61078 3.31393 8.78058 3.31131 8.88607 3.20394C8.99412 3.09395 8.99412 2.9185 8.88607 2.80851L8.86291 2.78494C8.76772 2.68804 8.71626 2.55972 8.71626 2.42617C8.71626 2.29261 8.76772 2.16429 8.86548 2.06477C9.06102 1.86575 9.37747 1.86837 9.56271 2.0543L11.6184 4.35358C12.0326 4.81711 12.259 5.41681 12.259 6.04269C12.2616 6.72095 12.0069 7.35208 11.5386 7.82608Z" fill="#1C1C1C"/>
</svg>
